<svg id="Capa_1" enable-background="new 0 0 498.327 498.327" height="512" viewBox="0 0 498.327 498.327" width="512" xmlns="http://www.w3.org/2000/svg"><g><path d="m335.33 481.709-51.768-37.084c-6.922-4.959-11.055-12.935-11.055-21.333v-213.65h-46.687v213.648c0 8.399-4.133 16.374-11.055 21.333l-51.768 37.085c-3.276 2.347-4.626 6.25-3.439 9.943 1.283 3.993 5.294 6.675 9.981 6.675h159.248c4.688 0 8.698-2.683 9.981-6.675 1.188-3.692-.162-7.595-3.438-9.942z" fill="#f7f9f5"/><path d="m335.33 481.709-51.768-37.084c-6.922-4.959-11.055-12.935-11.055-21.333v-213.65h-30v213.648c0 8.399 4.133 16.374 11.055 21.333l51.768 37.084c3.276 2.348 4.626 6.25 3.439 9.943-1.283 3.993-5.294 6.675-9.981 6.675h30c4.688 0 8.698-2.683 9.981-6.675 1.187-3.691-.163-7.594-3.439-9.941z" fill="#eceae6"/><g><g><path d="m134.357 4.457c-19.03 24.737-30.249 55.795-29.952 89.486.693 78.713 65.015 142.91 143.729 143.457 80.423.559 145.794-64.467 145.794-144.76 0-33.187-11.172-63.761-29.954-88.178-2.181-2.834-5.582-4.462-9.159-4.462h-211.304c-3.574 0-6.974 1.625-9.154 4.457z" fill="#f7f9f5"/></g></g><g><g><path d="m333.974 4.462c13.699 17.809 23.343 38.897 27.563 61.882l17.724 10 12.276-10c-4.22-22.985-13.864-44.073-27.563-61.882-2.181-2.835-5.582-4.462-9.159-4.462h-30c3.577 0 6.978 1.627 9.159 4.462z" fill="#eceae6"/></g></g><g><g><path d="m106.835 66.072c-1.675 9.024-2.514 18.342-2.429 27.871.693 78.713 65.015 142.91 143.729 143.458 80.423.559 145.794-64.467 145.794-144.761 0-9.076-.841-17.955-2.44-26.568z" fill="#d4f2f6"/></g></g><g><g><path d="m391.447 66.178h-30c1.598 8.613 2.44 17.492 2.44 26.568 0 74.878-56.852 136.468-129.743 143.984 4.592.477 9.244.744 13.95.776 80.423.559 145.794-64.466 145.794-144.76-.002-9.076-.843-17.954-2.441-26.568z" fill="#a6e7f0"/></g></g><g><g><path d="m196.595 148.042-28.319 1.374c-6.378.309-11.799-4.61-12.109-10.988l-1.374-28.319c-.309-6.378 4.61-11.799 10.988-12.109l28.319-1.374c6.378-.309 11.799 4.61 12.109 10.988l1.374 28.319c.31 6.379-4.61 11.8-10.988 12.109z" fill="#f7f9f5"/></g></g><g><g><path d="m206.209 107.614c-.309-6.378-5.731-11.298-12.109-10.988l-24.329 1.18c3.642 1.799 6.227 5.463 6.438 9.808l1.374 28.32c.309 6.378-4.61 11.799-10.988 12.109l-3.99.194c1.704.842 3.638 1.279 5.671 1.18l28.319-1.374c6.378-.309 11.298-5.73 10.988-12.109z" fill="#eceae6"/></g></g><g><g><circle cx="250.986" cy="103.761" fill="#a6e7f0" r="8.59"/></g></g><g><g><circle cx="184.072" cy="183.44" fill="#a6e7f0" r="8.59"/></g></g><g><g><circle cx="131.23" cy="99.502" fill="#a6e7f0" r="8.59"/></g></g><g><g><path d="m284.059 186.649c17.823 1.923 36.326-3.945 49.989-17.608 20.455-20.455 23.441-51.761 8.962-75.387-3.142-5.127-10.296-5.901-14.547-1.649l-56.198 56.198" fill="#a2e62e"/></g></g><path d="m343.01 93.654c-3.142-5.127-10.296-5.901-14.547-1.649l-10.839 10.839c8.845 22.098 4.321 48.3-13.576 66.197-6.221 6.221-13.451 10.808-21.158 13.797l1.169 3.811c17.823 1.923 36.326-3.946 49.989-17.608 20.455-20.456 23.44-51.761 8.962-75.387z" fill="#97d729"/><g><g><path d="m272.265 148.203-22.851 22.851c9.935 9.045 22.122 14.244 34.645 15.595" fill="#a2e62e"/></g></g><g><g><path d="m275.006 145.113c9.756 8.882 24.871 8.611 34.298-.816s9.698-24.542.816-34.298z" fill="#d1f19e"/></g></g><g><g><path d="m277.569 190.752-28.37 16.379c-5.53 3.193-12.601 1.298-15.794-4.232l-16.379-28.37c-3.193-5.53-1.298-12.601 4.232-15.794l28.37-16.379c5.53-3.193 12.601-1.298 15.794 4.232l16.379 28.37c3.193 5.53 1.298 12.601-4.232 15.794z" fill="#f7f9f5"/></g></g><g><g><path d="m281.801 174.958-16.379-28.37c-3.193-5.53-10.264-7.425-15.794-4.232l-12.487 7.209 14.66 25.393c3.193 5.53 1.298 12.601-4.232 15.794l-15.883 9.17 1.719 2.977c3.193 5.53 10.264 7.425 15.794 4.232l28.37-16.379c5.53-3.193 7.425-10.264 4.232-15.794z" fill="#eceae6"/></g></g></g></svg>