<?xml version="1.0" encoding="iso-8859-1"?>
<!-- Generator: Adobe Illustrator 19.0.0, SVG Export Plug-In . SVG Version: 6.00 Build 0)  -->
<svg version="1.1" id="Capa_1" xmlns="http://www.w3.org/2000/svg" xmlns:xlink="http://www.w3.org/1999/xlink" x="0px" y="0px"
	 viewBox="0 0 512 512" style="enable-background:new 0 0 512 512;" xml:space="preserve">
<path style="fill:#FFCA28;" d="M367.851,26.3c-4.9,0-8.8,4.8-8.8,10.7v135.3c0,5.1,3,9.4,7.1,10.4l35.4,9c0.6,0.2,1.2,0.2,1.8,0.2
	c4.9,0,8.8-4.8,8.8-10.7V37c0-5.9-4-10.7-8.8-10.7"/>
<g>
	<path style="fill:#FFC107;" d="M96.851,76.6c-2.4-1.7-5.4-2.3-8.2-1.7l-53.4,10.6c-5.7,1.1-9.5,6.5-8.5,12.2l21.3,128
		c0.9,5.2,5.4,9,10.6,8.9h53.4c5.9,0,10.7-4.8,10.7-10.7c0-0.5,0-1.1-0.1-1.6l-21.4-138.6C100.851,80.8,99.251,78.3,96.851,76.6z"/>
	<path style="fill:#FFC107;" d="M479.451,86.5l-42.7-21.3c-5.3-2.6-11.7-0.5-14.3,4.8l0,0l-82.5,165c-2.6,5.3-0.5,11.7,4.8,14.3
		c1.5,0.7,3.1,1.1,4.8,1.1c0.7,0,1.3-0.1,2-0.2l82.5-15.7c3.8-0.7,6.9-3.4,8.1-7.1l42.7-128C486.551,94.4,484.251,88.8,479.451,86.5
		z"/>
</g>
<path style="fill:#FFB300;" d="M413.251,139l-42.7-10.7c-5.7-1.4-11.5,2.1-12.9,7.8c-0.1,0.4-0.2,0.8-0.2,1.3l-10.7,85.3
	c-0.7,5.8,3.4,11.2,9.3,11.9c0.5,0.1,0.9,0.1,1.4,0.1h42.7c5.3,0.1,9.9-3.9,10.7-9.2l10.7-74.7
	C422.251,145.4,418.651,140.2,413.251,139z"/>
<path style="fill:#FFC107;" d="M154.651,45.7c-0.4-3-2-5.8-4.5-7.5c-2.5-1.8-5.7-2.3-8.6-1.6l-42.7,10.7c-4.8,1.2-8.1,5.5-8.1,10.3
	l0.1,33.6l21.3,138.7c0.8,5.2,5.3,9,10.5,9h42.7c5.9,0,10.7-4.7,10.7-10.6c0-0.4,0-0.9-0.1-1.3L154.651,45.7z"/>
<g>
	<path style="fill:#FFD54F;" d="M239.551,289.3l-31.4-179.5c0-0.4-0.1-0.7-0.3-1.1l-21.2-74.7c-1.6-5.7-7.6-8.9-13.2-7.3
		c-0.6,0.2-1.2,0.4-1.7,0.7l-42.7,21.4c-3.9,2-6.2,6.1-5.8,10.5l23.8,262.6c0.5,5.9,5.7,10.2,11.6,9.7c1.1-0.1,2.1-0.4,3.2-0.8
		l71.4-29.9C237.751,299,240.451,294.2,239.551,289.3z"/>
	<path style="fill:#FFD54F;" d="M304.051,21.3h-42.7c-5.5,0-10.2,4.2-10.7,9.7l-25.3,281.3c-0.5,5.9,3.8,11.1,9.7,11.6
		c0.3,0,0.7,0,1,0h59.3c5.7,0,10.4-4.5,10.7-10.2l8.6-217.3V32C314.751,26.1,309.951,21.3,304.051,21.3z"/>
</g>
<path style="fill:#FFC107;" d="M362.351,69.9l-50.3-10.7c-2.3-0.5-4.7,0.3-6.5,2.1s-3,4.6-3.2,7.5l-2,31.1c-0.4,5.6,21.3-0.8,25.7,0
	l-11.3,176.2c0.4,0,15.6,7.5,16,7.5c4.1,0,7.4-17.6,8.1-22.7l13.7-29.5v-0.3l16.8-149.3C369.951,76.2,366.851,70.9,362.351,69.9z"/>
<path style="fill:#FFB300;" d="M269.151,3.4c-2-2.2-4.8-3.4-7.8-3.4h-42.7c-5.4,0-10,4-10.7,9.3l-11.9,278.7
	c-0.7,5.2,4.2,16.3,9.2,17.8l31.7,13.8c1,0.3,2,0.4,3.1,0.4c5.6,0,10.3-4.3,10.7-9.9l21.3-298.7
	C272.251,8.5,271.251,5.6,269.151,3.4z"/>
<path style="fill:#FFCA28;" d="M245.351,95.5c-0.3-5.7-5-10.1-10.7-10.1h-42.6c-5.9,0-10.7,4.8-10.7,10.7c0,0.2,0,0.4,0,0.6
	l10.7,202.5c0.3,4.7,3.5,8.6,8.1,9.8l42.7,10.7c0.8,0.2,1.7,0.3,2.6,0.3c5.9,0,10.7-4.8,10.7-10.7c0-0.2,0-0.4,0-0.5L245.351,95.5z"
	/>
<path style="fill:#F44336;" d="M461.951,217.6c-2-2.7-5.2-4.3-8.5-4.3h-106.7c-5.9,0-10.7,4.8-10.7,10.7c0,41.2-33.4,74.7-74.7,74.7
	h-21.3c-41.2,0-74.7-33.4-74.7-74.7c0-5.9-4.8-10.7-10.7-10.7h-106.6c-5.9,0-10.7,4.8-10.7,10.7c0,1.1,0.2,2.1,0.5,3.1l76,247.2
	c6.8,22.4,27.5,37.7,51,37.7h171.6c23.4,0.1,44.2-15.2,51-37.7l76.1-247.2C464.551,223.9,463.951,220.3,461.951,217.6z"/>
<path d="M336.551,512h-171.7c-23.4,0.1-44.2-15.2-51-37.7l0,0l-76-247.2c-1.7-5.6,1.4-11.6,7.1-13.3c1-0.3,2.1-0.5,3.1-0.5h106.7
	c5.9,0,10.7,4.8,10.7,10.7c0,41.2,33.4,74.7,74.7,74.7h21.3c41.2,0,74.7-33.4,74.7-74.7c0-5.9,4.8-10.7,10.7-10.7h106.7
	c5.9,0,10.7,4.8,10.7,10.7c0,1.1-0.2,2.1-0.5,3.1l-76.1,247.2C380.751,496.8,359.951,512.1,336.551,512z M134.351,468.1
	c4.1,13.5,16.5,22.7,30.6,22.6h171.6c14.1,0.1,26.5-9.1,30.6-22.6l71.8-233.4h-82.2c-5.5,48.6-46.5,85.3-95.4,85.3h-21.3
	c-48.9-0.1-89.9-36.8-95.4-85.3h-82.2L134.351,468.1z"/>
<path d="M400.051,234.7c-5.9,0.1-10.7-4.7-10.8-10.6c0-0.5,0-1.1,0.1-1.6l9.3-65.2l-21.7-5.4l-9.2,73.4c-0.9,5.8-6.3,9.8-12.1,9
	c-5.6-0.8-9.6-6-9-11.6l10.7-85.3c0.7-5.8,6.1-10,11.9-9.3c0.4,0.1,0.8,0.1,1.3,0.2l42.7,10.7c5.3,1.3,8.8,6.4,8,11.9l-10.7,74.7
	C409.751,230.7,405.351,234.6,400.051,234.7z"/>
<path d="M272.051,309.3h-0.6c-5.9-0.3-10.4-5.3-10.1-11.2l0,0l10.7-202.7c0.3-5.7,5-10.1,10.7-10.1h42.7c5.9,0,10.7,4.8,10.7,10.6
	c0,0.2,0,0.4,0,0.6l-10.7,192c-0.3,5.9-5.4,10.4-11.3,10.1s-10.4-5.4-10.1-11.3l0,0l10.1-180.7h-21.3l-10.1,192.6
	C282.351,304.9,277.751,309.3,272.051,309.3z"/>
<path d="M58.751,234.7c-5.2,0-9.7-3.8-10.5-8.9l-21.3-128c-0.9-5.7,2.9-11.1,8.5-12.2l53.3-10.7c5.8-1.2,11.4,2.6,12.5,8.4
	c0,0.1,0,0.2,0.1,0.3l10.7,64c1.1,5.8-2.6,11.4-8.4,12.5s-11.4-2.6-12.5-8.4c0-0.2-0.1-0.4-0.1-0.6l-8.9-53.1l-32.4,6.4l19.6,117.8
	c1,5.8-3,11.3-8.8,12.3C59.951,234.6,59.351,234.6,58.751,234.7z"/>
<path d="M112.051,234.7c-5.3,0-9.8-3.9-10.6-9.2l-10.7-74.7c-0.8-5.4,2.7-10.5,8-11.9l34.1-8.5l-8.6-74.4l-22.8,5.7v23.7
	c0,5.9-4.8,10.7-10.7,10.7s-10.7-4.9-10.7-10.8v-32c0-4.9,3.3-9.2,8.1-10.3l42.7-10.7c3-0.8,6.1-0.2,8.6,1.6
	c2.5,1.7,4.2,4.5,4.5,7.5l21.3,181.3c0.7,5.8-3.5,11.2-9.3,11.9s-11.2-3.5-11.9-9.3l0,0l-9.2-73.4l-21.7,5.4l9.3,65.2
	c0.8,5.8-3.2,11.2-9,12.1c-0.5,0.1-1.1,0.1-1.6,0.1H112.051z"/>
<path d="M197.351,106.7c-4.8,0-8.9-3.2-10.2-7.7l-17.8-62.3l-31.2,15.6c-5.3,2.6-11.7,0.5-14.3-4.8c-2.6-5.3-0.5-11.7,4.8-14.3l0,0
	l42.7-21.3c5.3-2.6,11.7-0.4,14.3,4.9c0.3,0.6,0.5,1.1,0.7,1.7l21.3,74.7c1.6,5.7-1.7,11.6-7.3,13.2l0,0
	C199.351,106.5,198.351,106.7,197.351,106.7z"/>
<path d="M240.051,320h-0.1c-5.6-0.1-10.3-4.5-10.5-10.1l-10.2-203.2h-21.3l10.1,191.4c0.3,5.9-4.2,10.9-10.1,11.2
	c-5.9,0.3-10.9-4.2-11.2-10.1l-10.8-202.6c-0.3-5.9,4.2-10.9,10.1-11.2c0.2,0,0.4,0,0.7,0h11.9l9.5-76c0.7-5.4,5.2-9.4,10.6-9.4
	h42.7c5.9,0,10.7,4.7,10.7,10.6c0,0.3,0,0.5,0,0.8l-21.3,298.7C250.351,315.7,245.651,320,240.051,320z M220.151,85.3h9.3
	c5.7,0,10.4,4.5,10.7,10.1l1.9,37.8l8-112h-21.8L220.151,85.3z"/>
<path d="M304.051,106.7c-5.9,0-10.7-4.8-10.7-10.7V42.7h-32c-5.9,0-10.7-4.8-10.7-10.7s4.8-10.7,10.7-10.7h42.7
	c5.9,0,10.7,4.8,10.7,10.7v64C314.751,101.9,309.951,106.7,304.051,106.7z"/>
<path d="M346.751,234.7c-5.9,0.1-10.7-4.7-10.8-10.6c0-0.5,0-1.1,0.1-1.6l19.9-139l-53.7-9c-5.8-1.1-9.5-6.8-8.4-12.5
	c1.1-5.5,6.3-9.3,11.9-8.5l64,10.7c5.7,1,9.6,6.3,8.8,12l-21.3,149.3C356.451,230.7,351.951,234.6,346.751,234.7z"/>
<path d="M432.051,234.7c-5.9,0-10.7-4.8-10.7-10.7c0-1.1,0.2-2.3,0.5-3.4l39.7-119.2l-24.7-12.4l-27.2,54.5c-2.6,5.3-9,7.4-14.3,4.8
	c-5.3-2.6-7.4-9-4.8-14.3l0,0l32-64c2.6-5.3,9-7.4,14.3-4.8l0,0l42.7,21.3c4.7,2.4,7,7.9,5.3,12.9l-42.7,128
	C440.751,231.7,436.651,234.7,432.051,234.7z"/>
<path d="M410.751,128c-5.9,0-10.7-4.8-10.7-10.7V42.7h-21.3v32c0,5.9-4.8,10.7-10.7,10.7c-5.9,0-10.7-4.8-10.7-10.7V32
	c0-5.9,4.8-10.7,10.7-10.7h42.7c5.9,0,10.7,4.8,10.7,10.7v85.3C421.351,123.2,416.651,128,410.751,128z"/>
<g>
</g>
<g>
</g>
<g>
</g>
<g>
</g>
<g>
</g>
<g>
</g>
<g>
</g>
<g>
</g>
<g>
</g>
<g>
</g>
<g>
</g>
<g>
</g>
<g>
</g>
<g>
</g>
<g>
</g>
</svg>
