<svg id="Layer_1" height="512" viewBox="0 0 512 512" width="512" xmlns="http://www.w3.org/2000/svg" data-name="Layer 1"><path d="m455.54 62.37c-55.78-53.57-142.74-54.97-200.16-5.32a12.3 12.3 0 0 0 -.49 18.19l195.25 187.51a12.4 12.4 0 0 0 18.23-1.16 147.735 147.735 0 0 0 -12.83-199.22z" fill="#e8a467"/><path d="m357.04 416.59-7.04 44.23a35.851 35.851 0 0 1 -35.41 30.22h-214.58a35.848 35.848 0 0 1 -35.3-29.6l-7.25-40.96c1.3.66 128.9 65.62 299.58-3.89z" fill="#bfcad6"/><path d="m389.27 214.26-32.22 202.33h-.01c-170.68 69.51-298.28 4.55-299.58 3.89l-.01-.01-36.52-206.21z" fill="#f3ce7d"/><path d="m372.22 187.92 18.43 17.7-1.38 8.64h-368.34l-9.87-55.7a16.16 16.16 0 0 1 16.11-17.57h296.18l9.51 9.13z" fill="#d3e1ef"/><path d="m453.22 194.43-74.28-18.37h-.01a26.974 26.974 0 0 1 -6.71 11.86l60.5 58.1c6.79 4.23 12.09-.82 13.6-2.88 8.84-12.09 13.89-20.72 16.76-32.31a13.5 13.5 0 0 0 -9.86-16.4z" fill="#f3ce7d"/><path d="m326.89 60.39c-.59-3.43-3.84-5.11-7.33-4.97-19.8.81-38.33 12.65-45.41 21.98-4.06 5.36-1.58 14.24-1.33 15.05l60.04 57.67a27.221 27.221 0 0 1 8.44-5.94v-.01z" fill="#f3ce7d"/><path d="m418.2 78.53c2.08 2.96 3.28 6.37.77 8.97l-55.06 56.62a27.106 27.106 0 0 0 -8.23-2.22l-2.22-80.36a7.055 7.055 0 0 1 7.04-7.15c24.11-.18 49.16 12.02 57.7 24.14z" fill="#f3ce7d"/><path d="m450.36 108.32c21.48 23.5 18.91 47.14 15.76 54.4-1.51 3.48-2.79 6.94-6.57 6.58l-79.86-3.96-.05.01a26.979 26.979 0 0 0 -4.97-12.5l58.73-45.89a12.521 12.521 0 0 1 16.96 1.36z" fill="#f3ce7d"/><path d="m379.64 165.35a27.282 27.282 0 0 1 -.71 10.71 26.974 26.974 0 0 1 -6.71 11.86l-39.36-37.8a27.221 27.221 0 0 1 8.44-5.94 27.666 27.666 0 0 1 14.38-2.28 26.96 26.96 0 0 1 15.88 7.39 26.009 26.009 0 0 1 3.11 3.56 26.979 26.979 0 0 1 4.97 12.5z" fill="#eadf53"/><path d="m94.71 461.42-5.069-28.613c-20.348-6.305-31.8-12.132-32.181-12.327l7.25 40.94a35.831 35.831 0 0 0 35.3 29.58h30a35.831 35.831 0 0 1 -35.3-29.58z" fill="#949fa8"/><path d="m57.17 141h-30a16.047 16.047 0 0 0 -16.11 17.435l9.87 55.565h30l-9.87-55.565a16.047 16.047 0 0 1 16.11-17.435z" fill="#afbbc6"/><path d="m50.926 214h-30l36.524 206.34s0 .065.01.075c.385.195 11.833 5.924 32.181 12.23z" fill="#c6a86d"/><g fill="#284268"><path d="m61.47 253.67a5.992 5.992 0 1 0 -4.25-1.76 6.029 6.029 0 0 0 4.25 1.76z"/><path d="m208.91 253.67a6.009 6.009 0 1 0 -4.24-1.76 6.052 6.052 0 0 0 4.24 1.76z"/><path d="m140.1 302.77a6.007 6.007 0 1 0 -4.241-1.76 6.052 6.052 0 0 0 4.241 1.76z"/><path d="m120.44 371.51a6.009 6.009 0 1 0 -4.24-1.76 6.054 6.054 0 0 0 4.24 1.76z"/><path d="m228.569 400.97a6.011 6.011 0 1 0 -4.239-1.76 6.014 6.014 0 0 0 4.239 1.76z"/><path d="m277.72 302.77a6.009 6.009 0 1 0 -4.24-1.76 6.012 6.012 0 0 0 4.24 1.76z"/><path d="m326.87 381.33a6.009 6.009 0 1 0 -4.24-1.76 6.007 6.007 0 0 0 4.24 1.76z"/><path d="m346.529 253.67a6.011 6.011 0 1 0 -4.239-1.76 6.014 6.014 0 0 0 4.239 1.76z"/><path d="m459.694 58.038a154.822 154.822 0 0 0 -208.237-5.531 18.309 18.309 0 0 0 -.721 27.066l57.7 55.414h-281.27a22.154 22.154 0 0 0 -22.079 24.1c.016.174.038.347.068.519l53.645 302.876a41.8 41.8 0 0 0 41.217 34.558h214.573a41.671 41.671 0 0 0 41.336-35.273l38.845-243.867 51.217 49.186a18.428 18.428 0 0 0 12.736 5.117c.386 0 .774-.013 1.162-.037a18.438 18.438 0 0 0 13.153-6.81 153.728 153.728 0 0 0 -13.345-207.318zm-181.462 31.302c-.46-2.384-.773-6.365.7-8.31 5.664-7.467 22.571-18.864 40.875-19.612a2.8 2.8 0 0 1 1.195.171l13.654 79.369q-.8.507-1.568 1.064zm65.843 370.539a29.723 29.723 0 0 1 -29.485 25.161h-214.575a29.82 29.82 0 0 1 -29.4-24.651l-5.285-29.836c13.736 5.608 40.25 14.819 76.721 20.116a386.626 386.626 0 0 0 55.486 3.945c42.491 0 94.6-6.757 151.932-28.6zm7.583-47.607c-85.811 34.2-160 33.4-207.343 26.6-43.535-6.258-72.9-18.555-81.495-22.49l-15.174-85.682a6.03 6.03 0 1 0 -1.3-7.306l-18.261-103.135h354.157zm32.5-204.013h-358.198l-8.938-50.459a10.157 10.157 0 0 1 10.144-10.81h293.769l63.3 60.786zm-16.748-54.644a21.038 21.038 0 0 1 6.471 14.892 21.319 21.319 0 0 1 -2.434 10.347l-29.463-28.3a21.407 21.407 0 0 1 25.422 3.061zm-7.942-92.191a.954.954 0 0 1 .282-.7 1.094 1.094 0 0 1 .793-.332h.487c22.185 0 44.88 11.113 52.267 21.6a8.037 8.037 0 0 1 .981 1.737l-51.948 53.416c-.263-.079-.525-.163-.79-.236zm82.01 178.176c-.85 1.165-2.612 2.84-5.122 1.588l-56.032-53.809a32.96 32.96 0 0 0 2.382-4.213l69.086 17.086a7.4 7.4 0 0 1 4.6 3.376 7.557 7.557 0 0 1 .864 5.763c-2.715 10.974-7.639 19.084-15.778 30.209zm-58.938-85.285 54.566-42.639a6.533 6.533 0 0 1 8.824.691c10.667 11.667 14.387 22.886 15.63 30.243 1.492 8.829.109 15.294-.943 17.723l-.229.532c-.321.745-.762 1.772-1.119 2.418l-74.711-3.707a32.9 32.9 0 0 0 -2.018-5.261zm81.16 103.505a6.394 6.394 0 0 1 -9.394.605l-7.7-7.394a17.868 17.868 0 0 0 4.562-4.345c8.832-12.075 14.562-21.577 17.732-34.412a19.507 19.507 0 0 0 -14.238-23.67l-68.462-16.931 72.931 3.618c.359.03.708.044 1.046.044 7.049 0 9.747-6.275 11.233-9.729l.217-.5c3.467-8 7.2-34.537-16.844-60.833a18.579 18.579 0 0 0 -25.081-2.039l-54.302 42.434q-.963-.9-1.979-1.714l49.863-51.281c1.563-1.617 6.167-7.594-.178-16.6-10.417-14.783-38.188-26.687-62.126-26.687h-.529a13.047 13.047 0 0 0 -12.984 13.317l2.04 74.172a33.736 33.736 0 0 0 -3.46.507l-13.246-77c-1.045-6.145-6.607-10.246-13.483-9.957-21.1.863-41.48 13.19-49.945 24.35a16.319 16.319 0 0 0 -2.454 4.7l-7.87-7.559a6.308 6.308 0 0 1 .256-9.333 142.266 142.266 0 0 1 93.242-34.623c1.126 0 2.258.013 3.386.039a141.937 141.937 0 0 1 107.767 230.821z"/></g></svg>